<svg width="350" height="326" viewBox="0 0 350 326" fill="none" xmlns="http://www.w3.org/2000/svg">
<g clip-path="url(#clip0_70_45)">
<path d="M262.575 204.513C295.593 199.413 331.234 218.568 332.735 219.387C333.986 220.069 335.032 221.081 335.763 222.318C336.495 223.554 336.883 224.968 336.886 226.408C336.889 227.847 336.507 229.258 335.782 230.49C335.056 231.722 334.013 232.728 332.766 233.4C315.706 242.89 299.191 253.355 283.3 264.746C275.751 270.197 267.036 273.758 257.861 275.142C244.169 276.922 230.238 275.071 217.419 269.767C217.419 269.767 205.418 266.24 205.396 258.302C205.385 254.334 213.215 242.561 213.215 242.561C213.215 242.561 224.653 223.947 233.251 217.32C241.849 210.692 251.912 206.297 262.575 204.513Z" fill="#FFC800"/>
<path d="M99.4528 230.407C110.348 231.976 129.617 242.624 129.617 242.624L139.131 268.455C130.285 279.382 118.766 287.838 105.69 293.004C96.836 296.3 87.3306 297.467 77.9422 296.411C58.2233 294.256 38.3979 293.22 18.5616 293.311C17.1222 293.336 15.7032 292.969 14.4565 292.249C13.2097 291.529 12.1821 290.484 11.4835 289.225C10.7849 287.966 10.4416 286.542 10.4904 285.103C10.5392 283.664 10.9782 282.265 11.7604 281.057C12.7 279.605 35.1414 245.369 67.067 233.614C77.4433 229.938 88.5572 228.837 99.4528 230.407Z" fill="#FFC800"/>
<path d="M278.244 192.706C285.817 192.839 293.241 190.594 299.471 186.287C298.103 178.838 294.442 172.009 288.997 166.745C283.551 161.48 276.597 158.05 269.105 156.935L260.71 155.692C260.614 156.096 260.508 156.513 260.399 156.938C259.417 160.884 258.132 164.749 256.557 168.498C255.645 170.699 254.664 172.812 253.626 174.828C253.219 175.618 252.764 176.319 252.339 177.079C251.7 178.22 251.08 179.401 250.402 180.468L257.254 185.547C263.33 190.07 270.671 192.573 278.244 192.706Z" fill="#191400"/>
<path d="M71.0757 77.2042C63.5029 77.0716 56.079 79.3164 49.8486 83.6231C51.2166 91.0724 54.8776 97.9015 60.3228 103.165C65.7679 108.43 72.7228 111.86 80.214 112.975L88.6093 114.218C88.7054 113.814 88.8112 113.397 88.9203 112.972C89.9027 109.026 91.1871 105.161 92.7621 101.412C93.6746 99.2112 94.6554 97.0981 95.694 95.082C96.101 94.2925 96.556 93.5908 96.9809 92.8314C97.6198 91.6902 98.2392 90.5092 98.9173 89.4413L92.0646 84.3622C85.9892 79.8404 78.6485 77.3369 71.0757 77.2042Z" fill="#191400"/>
<path d="M116.91 238.539C116.777 246.112 119.022 253.535 123.329 259.766C130.778 258.398 137.607 254.737 142.872 249.291C148.136 243.847 151.566 236.891 152.681 229.401L153.924 221.005C153.52 220.909 153.102 220.804 152.677 220.695C148.731 219.711 144.868 218.427 141.118 216.852C138.918 215.94 136.805 214.959 134.788 213.92C133.999 213.513 133.296 213.058 132.537 212.634C131.396 211.994 130.215 211.376 129.148 210.697L124.069 217.549C119.546 223.626 117.043 230.966 116.91 238.539Z" fill="#191400"/>
<path d="M232.412 31.3706C232.545 23.7978 230.3 16.374 225.993 10.1435C218.544 11.5115 211.715 15.1726 206.451 20.6177C201.186 26.0629 197.756 33.0177 196.641 40.5088L195.398 48.904C195.802 48.9999 196.22 49.1059 196.645 49.215C200.591 50.1978 204.455 51.4824 208.204 53.0574C210.405 53.9691 212.518 54.95 214.534 55.9891C215.324 56.3958 216.026 56.8508 216.785 57.2754C217.926 57.9148 219.107 58.5337 220.174 59.2123L225.254 52.3598C229.776 46.284 232.279 38.9434 232.412 31.3706Z" fill="#191400"/>
<path d="M60.5799 167.364C55.1314 172.625 51.4692 179.461 50.1089 186.912C56.3436 191.212 63.7612 193.452 71.3339 193.325C78.9066 193.197 86.2496 190.704 92.3356 186.196L99.1508 181.139C98.9327 180.786 98.7129 180.415 98.4891 180.038C96.3939 176.552 94.5699 172.911 93.0323 169.147C92.1207 166.946 91.3206 164.758 90.6287 162.597C90.3585 161.752 90.1843 160.933 89.9474 160.097C89.5926 158.837 89.1953 157.564 88.9202 156.33L80.4833 157.584C72.9894 158.683 66.0285 162.103 60.5799 167.364Z" fill="#191400"/>
<path d="M288.742 102.545C294.19 97.2845 297.852 90.4473 299.213 82.9964C292.979 78.6968 285.561 76.4566 277.988 76.5846C270.416 76.7124 263.072 79.2049 256.986 83.7135L250.172 88.7706C250.389 89.1238 250.61 89.4942 250.833 89.8719C252.928 93.3572 254.752 96.998 256.29 100.763C257.201 102.963 258.002 105.151 258.693 107.312C258.963 108.157 259.138 108.975 259.374 109.813C259.729 111.072 260.127 112.344 260.402 113.579L268.839 112.326C276.332 111.227 283.293 107.807 288.742 102.545Z" fill="#191400"/>
<path d="M142.252 20.8736C136.992 15.425 130.154 11.7629 122.704 10.4025C118.404 16.6372 116.163 24.0549 116.292 31.6276C116.42 39.2003 118.912 46.5434 123.42 52.6293L128.478 59.4443C128.831 59.2266 129.201 59.0062 129.579 58.7827C133.064 56.6876 136.705 54.8634 140.47 53.3262C142.67 52.4145 144.858 51.614 147.019 50.9227C147.864 50.6524 148.682 50.4777 149.52 50.241C150.779 49.8862 152.051 49.4889 153.286 49.2138L152.033 40.7769C150.934 33.2831 147.513 26.3221 142.252 20.8736Z" fill="#191400"/>
<path d="M207.071 249.036C212.331 254.484 219.168 258.146 226.618 259.507C230.919 253.272 233.159 245.855 233.031 238.282C232.903 230.709 230.411 223.366 225.902 217.28L220.845 210.465C220.492 210.683 220.122 210.903 219.744 211.127C216.258 213.222 212.618 215.046 208.853 216.583C206.652 217.495 204.464 218.295 202.303 218.987C201.458 219.257 200.64 219.431 199.803 219.668C198.544 220.023 197.271 220.42 196.037 220.695L197.29 229.133C198.389 236.626 201.809 243.587 207.071 249.036Z" fill="#191400"/>
<path d="M292.46 148.669C299.507 145.894 305.507 140.979 309.615 134.617C305.5 128.258 299.505 123.349 292.46 120.569C285.414 117.79 277.676 117.283 270.329 119.119L262.097 121.183C262.163 121.593 262.225 122.019 262.287 122.454C262.888 126.475 263.18 130.537 263.16 134.603C263.16 136.986 263.062 139.313 262.874 141.574C262.8 142.459 262.649 143.281 262.547 144.145C262.393 145.445 262.273 146.772 262.055 148.018L270.329 150.088C277.673 151.941 285.413 151.445 292.46 148.669Z" fill="#191400"/>
<path d="M56.861 121.239C49.8139 124.014 43.8142 128.929 39.7061 135.292C43.8207 141.651 49.8164 146.559 56.8616 149.338C63.9068 152.119 71.6449 152.626 78.9927 150.79L87.2241 148.726C87.1582 148.315 87.0963 147.889 87.0344 147.455C86.4329 143.433 86.1407 139.372 86.1611 135.305C86.1611 132.923 86.2587 130.595 86.4468 128.334C86.5208 127.45 86.6722 126.627 86.774 125.763C86.9278 124.464 87.0483 123.137 87.2664 121.89L78.9919 119.82C71.648 117.967 63.9081 118.464 56.861 121.239Z" fill="#191400"/>
<path d="M160.947 252.754C163.722 259.801 168.638 265.801 175 269.909C181.359 265.794 186.267 259.798 189.047 252.753C191.827 245.708 192.334 237.97 190.498 230.622L188.434 222.391C188.024 222.457 187.597 222.519 187.163 222.58C183.141 223.182 179.08 223.474 175.013 223.454C172.631 223.454 170.304 223.356 168.043 223.168C167.158 223.094 166.335 222.943 165.471 222.841C164.172 222.686 162.845 222.567 161.599 222.348L159.528 230.623C157.675 237.967 158.172 245.707 160.947 252.754Z" fill="#191400"/>
<path d="M188.376 17.1549C185.601 10.1078 180.686 4.10814 174.323 0C167.964 4.11455 163.056 10.1103 160.276 17.1555C157.497 24.2007 156.989 31.9388 158.825 39.2866L160.89 47.5183C161.299 47.4523 161.726 47.3904 162.16 47.3285C166.181 46.7265 170.244 46.4345 174.31 46.4549C176.692 46.4549 179.02 46.5526 181.28 46.7409C182.165 46.8147 182.988 46.9664 183.852 47.068C185.151 47.2221 186.479 47.342 187.725 47.5604L189.795 39.2858C191.648 31.942 191.152 24.202 188.376 17.1549Z" fill="#191400"/>
<path d="M81.6681 208.554C78.6472 215.499 77.8803 223.217 79.4747 230.622C86.8806 232.208 94.5904 231.44 101.538 228.423C108.485 225.407 114.316 220.294 118.213 213.8L122.574 206.52C122.237 206.276 121.892 206.019 121.541 205.755C118.272 203.337 115.193 200.671 112.332 197.782C110.648 196.097 109.071 194.383 107.606 192.651C107.032 191.973 106.558 191.284 106.018 190.601C105.209 189.574 104.355 188.55 103.629 187.515L96.3135 191.902C89.81 195.784 84.6886 201.608 81.6681 208.554Z" fill="#191400"/>
<path d="M267.656 61.3563C270.676 54.4107 271.443 46.6928 269.848 39.2886C262.443 37.7018 254.732 38.4709 247.785 41.487C240.838 44.5031 235.008 49.616 231.11 56.11L226.75 63.3905C227.086 63.6337 227.431 63.8914 227.782 64.1547C231.051 66.5728 234.13 69.2385 236.991 72.1282C238.676 73.8128 240.252 75.5277 241.717 77.2594C242.291 77.9371 242.766 78.6261 243.305 79.3089C244.114 80.3365 244.968 81.3601 245.695 82.3957L253.01 78.0085C259.513 74.1257 264.635 68.3018 267.656 61.3563Z" fill="#191400"/>
<path d="M101.061 41.9598C94.1158 38.9393 86.3978 38.1723 78.9938 39.7667C77.407 47.1724 78.176 54.8827 81.1921 61.83C84.2083 68.7773 89.3208 74.6077 95.8153 78.5051L103.096 82.8662C103.339 82.5292 103.597 82.1841 103.86 81.8332C106.278 78.5639 108.944 75.4852 111.833 72.6243C113.518 70.9398 115.233 69.3631 116.964 67.8975C117.642 67.3242 118.332 66.8497 119.014 66.3107C120.042 65.501 121.065 64.6469 122.101 63.9203L117.714 56.6054C113.831 50.1024 108.007 44.9804 101.061 41.9598Z" fill="#191400"/>
<path d="M248.26 227.949C255.205 230.97 262.923 231.737 270.328 230.142C271.914 222.737 271.146 215.026 268.129 208.079C265.113 201.131 260 195.301 253.507 191.404L246.226 187.043C245.982 187.379 245.725 187.725 245.461 188.075C243.043 191.345 240.377 194.423 237.488 197.284C235.804 198.969 234.089 200.546 232.357 202.011C231.679 202.585 230.99 203.059 230.307 203.598C229.28 204.408 228.256 205.262 227.221 205.989L231.608 213.303C235.49 219.807 241.314 224.929 248.26 227.949Z" fill="#191400"/>
<path fill-rule="evenodd" clip-rule="evenodd" d="M158.82 287.679C159.853 288.459 160.913 289.207 161.998 289.92C161.998 289.92 170.505 293.817 174.408 293.817C178.31 293.817 186.651 289.92 186.651 289.92C187.952 289.449 189.27 288.702 190.585 287.749V313.67C190.585 321.611 183.474 325.581 174.702 325.581C165.931 325.581 158.82 321.611 158.82 313.67V287.679Z" fill="#FFC800"/>
<path fill-rule="evenodd" clip-rule="evenodd" d="M174.702 214.408C218.559 214.408 254.112 178.854 254.112 134.997C254.112 91.14 218.559 55.5871 174.702 55.5871C130.845 55.5871 95.292 91.14 95.292 134.997C95.292 178.854 130.845 214.408 174.702 214.408ZM158.822 87.351C158.822 91.7366 155.267 95.292 150.881 95.292C146.495 95.292 142.94 91.7366 142.94 87.351C142.94 82.9655 146.495 79.4101 150.881 79.4101C155.267 79.4101 158.822 82.9655 158.822 87.351ZM127.057 111.175C131.443 111.175 134.998 107.619 134.998 103.234C134.998 98.8473 131.443 95.2928 127.057 95.2928C122.671 95.2928 119.116 98.8473 119.116 103.234C119.116 107.619 122.671 111.175 127.057 111.175ZM127.057 142.938C131.443 142.938 134.998 139.383 134.998 134.997C134.998 130.612 131.443 127.057 127.057 127.057C122.671 127.057 119.116 130.612 119.116 134.997C119.116 139.383 122.671 142.938 127.057 142.938ZM158.822 119.115C158.822 123.501 155.267 127.056 150.881 127.056C146.495 127.056 142.94 123.501 142.94 119.115C142.94 114.729 146.495 111.174 150.881 111.174C155.267 111.174 158.822 114.729 158.822 119.115ZM174.703 142.938C179.089 142.938 182.645 139.383 182.645 134.997C182.645 130.612 179.089 127.057 174.703 127.057C170.317 127.057 166.762 130.612 166.762 134.997C166.762 139.383 170.317 142.938 174.703 142.938ZM206.468 150.879C206.468 155.265 202.913 158.82 198.527 158.82C194.142 158.82 190.586 155.265 190.586 150.879C190.586 146.494 194.142 142.938 198.527 142.938C202.913 142.938 206.468 146.494 206.468 150.879ZM174.703 174.702C179.089 174.702 182.645 171.147 182.645 166.761C182.645 162.376 179.089 158.82 174.703 158.82C170.317 158.82 166.762 162.376 166.762 166.761C166.762 171.147 170.317 174.702 174.703 174.702ZM198.527 95.292C202.913 95.292 206.468 91.7366 206.468 87.351C206.468 82.9655 202.913 79.4101 198.527 79.4101C194.142 79.4101 190.586 82.9655 190.586 87.351C190.586 91.7366 194.142 95.292 198.527 95.292ZM206.468 182.643C206.468 187.029 202.913 190.584 198.527 190.584C194.142 190.584 190.586 187.029 190.586 182.643C190.586 178.257 194.142 174.702 198.527 174.702C202.913 174.702 206.468 178.257 206.468 182.643ZM150.881 190.584C155.267 190.584 158.822 187.029 158.822 182.643C158.822 178.257 155.267 174.702 150.881 174.702C146.495 174.702 142.94 178.257 142.94 182.643C142.94 187.029 146.495 190.584 150.881 190.584ZM158.822 150.879C158.822 155.265 155.267 158.82 150.881 158.82C146.495 158.82 142.94 155.265 142.94 150.879C142.94 146.494 146.495 142.938 150.881 142.938C155.267 142.938 158.822 146.494 158.822 150.879ZM127.057 174.702C131.443 174.702 134.998 171.147 134.998 166.761C134.998 162.376 131.443 158.82 127.057 158.82C122.671 158.82 119.116 162.376 119.116 166.761C119.116 171.147 122.671 174.702 127.057 174.702ZM182.645 103.234C182.645 107.619 179.089 111.175 174.703 111.175C170.317 111.175 166.762 107.619 166.762 103.234C166.762 98.8473 170.317 95.2928 174.703 95.2928C179.089 95.2928 182.645 98.8473 182.645 103.234ZM222.349 111.175C226.735 111.175 230.29 107.619 230.29 103.234C230.29 98.8473 226.735 95.2928 222.349 95.2928C217.964 95.2928 214.408 98.8473 214.408 103.234C214.408 107.619 217.964 111.175 222.349 111.175ZM230.29 166.761C230.29 171.147 226.735 174.702 222.349 174.702C217.964 174.702 214.408 171.147 214.408 166.761C214.408 162.376 217.964 158.82 222.349 158.82C226.735 158.82 230.29 162.376 230.29 166.761ZM198.527 127.056C202.913 127.056 206.468 123.501 206.468 119.115C206.468 114.729 202.913 111.174 198.527 111.174C194.142 111.174 190.586 114.729 190.586 119.115C190.586 123.501 194.142 127.056 198.527 127.056ZM230.29 134.997C230.29 139.383 226.735 142.938 222.349 142.938C217.964 142.938 214.408 139.383 214.408 134.997C214.408 130.612 217.964 127.057 222.349 127.057C226.735 127.057 230.29 130.612 230.29 134.997Z" fill="#332800"/>
</g>
<defs>
<clipPath id="clip0_70_45">
<rect width="350" height="325.581" fill="white"/>
</clipPath>
</defs>
</svg>
